<svg xmlns="http://www.w3.org/2000/svg" width="1279.499" height="182.5" viewBox="0 0 1279.499 182.5">
  <g id="グループ_9200" data-name="グループ 9200" transform="translate(-84.189 -63)">
    <g id="グループ_8976" data-name="グループ 8976">
      <line id="線_15" data-name="線 15" y2="182.5" transform="translate(326.5 63)" fill="none" stroke="#000" stroke-width="5"/>
      <g id="グループ_9197" data-name="グループ 9197" transform="translate(-250.267 -224.358)">
        <path id="パス_14362" data-name="パス 14362" d="M470.462,363.509c10.891.64,28.957-4.357,31.007-8.457-4.613-7.3,0-19.475-12.685-25.882.129,2.05-9.994,11.788-16.528,4.357a28.521,28.521,0,0,1-3.459-4.869,25.049,25.049,0,0,0-1.666-5.253c-.128-3.588,1.794-6.919,6.791-9.61,9.481-5.125,19.859-1.281,23.7.641,13.325,5.51,31.391,30.238,23.063,53.173-13.2,24.472-40.1,41.384-61.886,48.047-8.072,18.835-27.8,38.823-76.748,38.823,16.656-8.713,24.985-31.647,23.191-36.644-22.678-4.869-54.07-22.678-68.676-49.841-8.328-22.806,9.738-47.663,22.934-53.044,3.972-2.05,14.351-5.766,23.832-.641,9.353,5,8.072,12.3,1.538,19.731-6.407,7.431-16.528-2.434-16.4-4.356-12.684,6.278-8.072,18.45-12.812,25.882,2.178,4.1,20.244,9.1,31.135,8.456,18.707-.641,24.216,12.813,44.2,12.685,21.91-.129,21.525-13.2,39.463-13.2Z" fill="#00a2ea"/>
        <path id="パス_14363" data-name="パス 14363" d="M484.025,368.551A26.522,26.522,0,1,0,457.5,342.029a26.575,26.575,0,0,0,26.522,26.522Z" transform="translate(-53.026 -1.839)" fill="#00a2ea" fill-rule="evenodd"/>
      </g>
    </g>
    <path id="パス_14365" data-name="パス 14365" d="M36.065-54.3H5.943V0H18.48V-22.632H34.762V-33.215H18.48v-10.5H36.065ZM50.393-36.309V0H62.116V-36.309Zm-.977-15.468a6.776,6.776,0,0,0,6.838,6.838,6.776,6.776,0,0,0,6.838-6.838,6.776,6.776,0,0,0-6.838-6.838A6.776,6.776,0,0,0,49.416-51.777ZM99.483-26.865v-9.444H92.238V-48.032H80.514v11.723h-4.07v9.444h4.07V0H92.238V-26.865ZM112.671,0h11.723V-18.643c0-2.361.326-4.966,2.279-6.92a6.372,6.372,0,0,1,4.885-1.954,6.149,6.149,0,0,1,4.478,1.628c1.872,1.872,1.954,4.885,1.954,7.245V0h11.723V-22.958c0-2.931-.244-7.245-3.663-10.665-3.094-3.094-7.245-3.663-10.42-3.663a13.259,13.259,0,0,0-11.235,5.292v-4.315H112.671Zm64.8-23.12a8.155,8.155,0,0,1,2.035-3.908,7.944,7.944,0,0,1,5.943-2.361,7.918,7.918,0,0,1,5.536,2.035,9.233,9.233,0,0,1,2.361,4.233Zm26.7,5.78c0-4.478-.814-10.176-5.129-14.735-4.478-4.722-10.339-5.454-14.41-5.454s-9.525.814-13.921,5.21a20.674,20.674,0,0,0-5.536,14.328,19.5,19.5,0,0,0,5.454,14c4.233,4.233,9.037,5.21,14.491,5.21,4.07,0,7.978-.57,11.479-2.687a16.234,16.234,0,0,0,7-9.118l-11.072-1.14a7.106,7.106,0,0,1-2.524,3.012,9.63,9.63,0,0,1-4.722,1.058,7.866,7.866,0,0,1-6.024-2.279,9.921,9.921,0,0,1-2.2-6.187h27.11Zm42.333-17.1a22.914,22.914,0,0,0-12.049-3.094c-3.338,0-7.734.651-10.99,3.663a11.249,11.249,0,0,0-3.5,8.385,8.956,8.956,0,0,0,2.605,6.594,14.5,14.5,0,0,0,5.862,3.338l2.931.9a15.45,15.45,0,0,1,3.582,1.3,2.4,2.4,0,0,1,1.3,2.117,3.092,3.092,0,0,1-1.221,2.361,6.559,6.559,0,0,1-3.663.814,10.959,10.959,0,0,1-4.885-1.14,20.185,20.185,0,0,1-3.989-2.687l-4.966,7.9c4.722,4.152,10.013,5.21,14.9,5.21,3.826,0,8.222-.57,11.8-4.152a13.185,13.185,0,0,0,3.745-9.525,8.659,8.659,0,0,0-2.849-6.92,15.439,15.439,0,0,0-6.024-3.175l-3.094-.977a21.07,21.07,0,0,1-3.5-1.221,1.9,1.9,0,0,1-1.14-1.628,2.508,2.508,0,0,1,.733-1.628,4.977,4.977,0,0,1,3.338-1.058,13.33,13.33,0,0,1,6.431,2.035Zm43.473,0a22.914,22.914,0,0,0-12.049-3.094c-3.338,0-7.734.651-10.99,3.663a11.249,11.249,0,0,0-3.5,8.385,8.956,8.956,0,0,0,2.605,6.594,14.5,14.5,0,0,0,5.862,3.338l2.931.9a15.451,15.451,0,0,1,3.582,1.3,2.4,2.4,0,0,1,1.3,2.117A3.092,3.092,0,0,1,278.5-8.874a6.559,6.559,0,0,1-3.663.814,10.959,10.959,0,0,1-4.885-1.14,20.184,20.184,0,0,1-3.989-2.687L261-3.989c4.722,4.152,10.013,5.21,14.9,5.21,3.826,0,8.222-.57,11.8-4.152a13.185,13.185,0,0,0,3.745-9.525,8.659,8.659,0,0,0-2.849-6.92,15.44,15.44,0,0,0-6.024-3.175l-3.094-.977a21.07,21.07,0,0,1-3.5-1.221,1.9,1.9,0,0,1-1.14-1.628,2.508,2.508,0,0,1,.733-1.628,4.977,4.977,0,0,1,3.338-1.058,13.331,13.331,0,0,1,6.431,2.035Zm72.211-21.085c-10.828,0-17.585,4.315-21.248,7.978a30.316,30.316,0,0,0-8.385,20.6,27.728,27.728,0,0,0,8.467,20.19c4.07,3.908,10.99,7.978,21.167,7.978,9.118,0,15.956-3.094,21-7.978a28.075,28.075,0,0,0,8.467-20.353A28.251,28.251,0,0,0,383.2-47.625C377.742-52.917,370.66-55.522,362.193-55.522Zm-.081,11.56a17.417,17.417,0,0,1,11.967,4.64A17.115,17.115,0,0,1,378.8-27.11c0,6.269-2.605,10.095-4.722,12.13a16.441,16.441,0,0,1-12.049,4.64,15.97,15.97,0,0,1-11.642-4.478,16.2,16.2,0,0,1-4.966-12.211,16.634,16.634,0,0,1,4.8-12.293A16.664,16.664,0,0,1,362.112-43.961ZM407.783,0h11.723V-18.643c0-2.361.326-4.966,2.279-6.92a6.372,6.372,0,0,1,4.885-1.954,6.149,6.149,0,0,1,4.478,1.628C433.02-24.016,433.1-21,433.1-18.643V0h11.723V-22.958c0-2.931-.244-7.245-3.663-10.665-3.094-3.094-7.246-3.663-10.421-3.663a13.259,13.259,0,0,0-11.235,5.292v-4.315H407.783Zm54.626-59.348V0h11.723V-59.348Zm30.122,23.039V0h11.723V-36.309Zm-.977-15.468a6.776,6.776,0,0,0,6.838,6.838,6.776,6.776,0,0,0,6.838-6.838,6.776,6.776,0,0,0-6.838-6.838A6.776,6.776,0,0,0,491.554-51.777ZM522.327,0H534.05V-18.643c0-2.361.326-4.966,2.279-6.92a6.372,6.372,0,0,1,4.885-1.954,6.149,6.149,0,0,1,4.478,1.628c1.872,1.872,1.954,4.885,1.954,7.245V0h11.723V-22.958c0-2.931-.244-7.245-3.663-10.665-3.094-3.094-7.245-3.663-10.42-3.663a13.259,13.259,0,0,0-11.235,5.292v-4.315H522.327Zm64.8-23.12a8.154,8.154,0,0,1,2.035-3.908,7.944,7.944,0,0,1,5.943-2.361,7.918,7.918,0,0,1,5.536,2.035A9.232,9.232,0,0,1,603-23.12Zm26.7,5.78c0-4.478-.814-10.176-5.129-14.735-4.478-4.722-10.339-5.454-14.41-5.454s-9.525.814-13.921,5.21a20.674,20.674,0,0,0-5.536,14.328,19.5,19.5,0,0,0,5.454,14c4.233,4.233,9.036,5.21,14.491,5.21,4.07,0,7.978-.57,11.479-2.687a16.234,16.234,0,0,0,7-9.118l-11.072-1.14a7.106,7.106,0,0,1-2.524,3.012,9.63,9.63,0,0,1-4.722,1.058,7.866,7.866,0,0,1-6.024-2.279,9.921,9.921,0,0,1-2.2-6.187h27.109Z" transform="translate(377.5 141)" fill="#333"/>
    <path id="パス_14366" data-name="パス 14366" d="M38.592-45.209q-.2,1.311-.286,2.845t-.041,2.889q.044,2.33.094,5.111t.129,5.89q.078,3.108.151,6.35t.129,6.49q.056,3.248.107,6.375t.094,5.992A5.422,5.422,0,0,1,37.442.949a6.725,6.725,0,0,1-4.8,1.5q-2.541,0-4.954-.091t-4.835-.248l-.641-7.343q1.924.308,4,.477t3.521.169a1.809,1.809,0,0,0,1.5-.564,2.819,2.819,0,0,0,.451-1.768q0-1.955-.007-4.451t-.035-5.363q-.028-2.868-.063-5.874t-.106-6q-.072-2.995-.144-5.766t-.217-5.1q-.1-1.85-.235-3.24t-.336-2.494Zm-32.2,9.4q1.209.157,3.008.279t3.234.123H45.357q1.374,0,3.118-.151t2.729-.3V-28.4q-1.337-.056-2.833-.091t-2.631-.034H12.809q-1.518,0-3.222.05t-3.2.163ZM3.382-8.962A69.234,69.234,0,0,0,11.8-13.649a76.568,76.568,0,0,0,7.335-5.412,60.011,60.011,0,0,0,5.89-5.61A37.182,37.182,0,0,0,29.1-29.95l3.662.032.056,6.024a40.931,40.931,0,0,1-4.328,5.4,79.113,79.113,0,0,1-5.872,5.641,79.508,79.508,0,0,1-6.838,5.321A72,72,0,0,1,8.551-3.1ZM75.65-42.893q1.479,1.015,3.453,2.5t4.071,3.2q2.1,1.708,3.962,3.335A41.845,41.845,0,0,1,90.2-30.939l-5.741,5.874q-1.1-1.191-2.839-2.824t-3.761-3.385q-2.025-1.752-4-3.319T70.342-37.22ZM68.567-5.313A60.1,60.1,0,0,0,76.89-7.06a59.928,59.928,0,0,0,7.222-2.574,55.839,55.839,0,0,0,6.073-3.058,52.555,52.555,0,0,0,8.8-6.529,57.634,57.634,0,0,0,6.989-7.643,44.05,44.05,0,0,0,4.775-7.747l4.372,7.909a49.93,49.93,0,0,1-5.274,7.59,61.414,61.414,0,0,1-7.077,7.168,60.688,60.688,0,0,1-8.513,6.137,68.4,68.4,0,0,1-6.193,3.286A60.129,60.129,0,0,1,81.026.249a54.473,54.473,0,0,1-7.678,1.875ZM136.7-43.28q1.159.156,2.8.234t3.058.078H164.24q1.341,0,3.136-.078t2.962-.234v7.31q-1.123-.113-2.88-.157t-3.318-.044H142.563q-1.361,0-2.986.05t-2.872.151Zm38.407,16.392q-.289.534-.606,1.212a10.209,10.209,0,0,0-.461,1.124,60.908,60.908,0,0,1-3.241,8.118,31.684,31.684,0,0,1-5.1,7.5,37.564,37.564,0,0,1-9.5,7.7A49.474,49.474,0,0,1,145.55,3.29L139.929-3.1A43.757,43.757,0,0,0,151.278-7.06a32.544,32.544,0,0,0,8.217-5.933,21.859,21.859,0,0,0,3.641-4.857,28.627,28.627,0,0,0,2.126-4.873H138.056q-1.046,0-2.917.05t-3.652.207V-29.8q1.825.157,3.541.264t3.027.107h27.882a16.351,16.351,0,0,0,2.476-.167,7.247,7.247,0,0,0,1.679-.424Zm14.563,4.966a97.756,97.756,0,0,0,13.752-4.612,84.138,84.138,0,0,0,10.887-5.527,59.839,59.839,0,0,0,5.867-4.125q2.953-2.339,5.58-4.831a51.354,51.354,0,0,0,4.437-4.711l6.087,5.786q-2.565,2.558-5.634,5.144t-6.4,4.944q-3.327,2.357-6.642,4.369-3.21,1.875-7.178,3.842t-8.383,3.723q-4.415,1.755-8.866,3.1Zm23.446-6.484,8.028-1.9V-4.9q0,1.242.05,2.7t.151,2.727a11.515,11.515,0,0,0,.289,1.97h-8.92q.1-.7.2-1.97T213.07-2.2q.05-1.459.05-2.7ZM261.8-42.893q1.479,1.015,3.453,2.5t4.071,3.2q2.1,1.708,3.962,3.335a41.845,41.845,0,0,1,3.068,2.918l-5.741,5.874q-1.1-1.191-2.839-2.824t-3.761-3.385q-2.025-1.752-4-3.319T256.5-37.22ZM254.72-5.313a60.1,60.1,0,0,0,8.323-1.747,59.927,59.927,0,0,0,7.222-2.574,55.836,55.836,0,0,0,6.073-3.058,52.553,52.553,0,0,0,8.8-6.529,57.631,57.631,0,0,0,6.989-7.643,44.047,44.047,0,0,0,4.775-7.747l4.372,7.909A49.931,49.931,0,0,1,296-19.111a61.413,61.413,0,0,1-7.077,7.168,60.688,60.688,0,0,1-8.513,6.137,68.4,68.4,0,0,1-6.193,3.286A60.129,60.129,0,0,1,267.179.249,54.471,54.471,0,0,1,259.5,2.124ZM355.464-40.585a3.134,3.134,0,0,0,.949,2.3,3.134,3.134,0,0,0,2.3.949,3.155,3.155,0,0,0,2.308-.949,3.124,3.124,0,0,0,.955-2.3,3.143,3.143,0,0,0-.955-2.307,3.144,3.144,0,0,0-2.308-.955,3.124,3.124,0,0,0-2.3.955A3.154,3.154,0,0,0,355.464-40.585Zm-3.5,0a6.435,6.435,0,0,1,.922-3.385,7.114,7.114,0,0,1,2.445-2.452,6.4,6.4,0,0,1,3.38-.922,6.436,6.436,0,0,1,3.386.922,7.092,7.092,0,0,1,2.451,2.452,6.437,6.437,0,0,1,.922,3.385,6.4,6.4,0,0,1-.922,3.38A7.115,7.115,0,0,1,362.1-34.76a6.434,6.434,0,0,1-3.386.922,6.4,6.4,0,0,1-3.38-.922,7.136,7.136,0,0,1-2.445-2.445A6.4,6.4,0,0,1,351.968-40.585ZM321.1-17.547q.947-2.382,1.805-5t1.56-5.393q.7-2.776,1.228-5.566t.765-5.474l8.2,1.7q-.2.8-.49,1.874t-.512,2.088q-.223,1.017-.348,1.669-.282,1.48-.784,3.574t-1.163,4.424q-.661,2.33-1.382,4.664t-1.472,4.307q-.985,2.733-2.37,5.661t-2.924,5.637Q321.677-.67,320.2,1.447l-7.9-3.329a61.559,61.559,0,0,0,5-7.716A67.845,67.845,0,0,0,321.1-17.547Zm27.842-1.178q-.814-2.232-1.852-4.771t-2.159-5.1q-1.122-2.561-2.188-4.818t-1.98-3.868l7.488-2.425q.877,1.631,2,3.935t2.263,4.891q1.144,2.586,2.216,5.106t1.867,4.549q.74,1.9,1.639,4.433t1.814,5.249q.915,2.72,1.727,5.319t1.376,4.7l-8.336,2.708q-.753-3.35-1.7-6.776t-1.982-6.769Q350.1-15.7,348.944-18.725Zm28.536-7.4q1.029.056,2.613.157t3.31.151q1.725.05,3.154.05h30.3q1.992,0,3.746-.151t2.883-.207v8.876q-1-.056-2.908-.179t-3.708-.123H386.557q-2.389,0-4.933.094t-4.144.207ZM448.1-3.3a42.439,42.439,0,0,0,11.559-6.858,44.375,44.375,0,0,0,7.742-8.461,33.354,33.354,0,0,0,4.575-9.034,75.881,75.881,0,0,0,2.111-8.024,32.071,32.071,0,0,0,.581-3.828,24,24,0,0,0,.129-2.954l9.127,1.251q-.489,1.632-.938,3.5t-.726,3.077a78.691,78.691,0,0,1-2.906,10.011,47.334,47.334,0,0,1-4.929,9.805,50.229,50.229,0,0,1-8.095,9.555A47.776,47.776,0,0,1,454.842,2.5Zm-1.146-38.912q1.066,1.5,2.4,3.7t2.739,4.6q1.4,2.407,2.611,4.6t1.984,3.664l-7.432,4.2q-1.041-2.271-2.3-4.691t-2.563-4.739q-1.3-2.319-2.513-4.287t-2.179-3.3Zm75.3,4.178q0-1.4-.179-3.346a18.1,18.1,0,0,0-.556-3.26h8.957a29.278,29.278,0,0,0-.345,3.326q-.113,2.007-.113,3.324v11.139a51.73,51.73,0,0,1-.717,8.776,30.662,30.662,0,0,1-2.5,7.946,27.241,27.241,0,0,1-4.915,7.083,37.835,37.835,0,0,1-7.964,6.228L506.891-2.03a29.726,29.726,0,0,0,7.43-4.69,22.194,22.194,0,0,0,4.707-5.8,23.587,23.587,0,0,0,2.49-6.769,37.786,37.786,0,0,0,.736-7.566V-38.033Zm-20.941,5.808q1.288.145,2.94.267t3.346.123h35.118q1.958,0,3.621-.116t2.541-.217v7.714q-.879-.1-2.7-.167t-3.523-.066H507.787q-1.838,0-3.49.088t-2.984.189ZM586.826-1.26a15.777,15.777,0,0,0,.33-1.907,19.034,19.034,0,0,0,.129-2.228V-38.285a22.847,22.847,0,0,0-.211-3.325q-.211-1.412-.223-1.536h8.367q-.012.124-.194,1.558a26.931,26.931,0,0,0-.182,3.347V-8.762a28.016,28.016,0,0,0,4.8-2.754,38.8,38.8,0,0,0,4.868-4.073,34.521,34.521,0,0,0,4.268-5.063l4.328,6.219a44.321,44.321,0,0,1-5.6,5.972,67.986,67.986,0,0,1-6.8,5.375A59.545,59.545,0,0,1,593.978.977a11.513,11.513,0,0,0-1.468.919q-.565.43-.966.731ZM560.7-2.078a22.564,22.564,0,0,0,6.1-6.262,30.335,30.335,0,0,0,3.5-7.249,22.624,22.624,0,0,0,.943-4.556q.323-2.732.486-5.862t.191-6.226q.028-3.1.028-5.649a25.343,25.343,0,0,0-.145-2.931,20.532,20.532,0,0,0-.389-2.259h8.291q-.012.112-.107.906t-.189,1.911q-.094,1.118-.094,2.285,0,2.508-.056,5.793t-.232,6.732q-.175,3.447-.492,6.528a33.381,33.381,0,0,1-.893,5.212,32.557,32.557,0,0,1-3.864,8.883,33.07,33.07,0,0,1-6.209,7.3ZM661.662-43.318q.8,1.155,1.746,2.712t1.855,3.124q.906,1.566,1.538,2.889l-4.879,2.109q-.828-1.8-1.583-3.245t-1.55-2.822a28.14,28.14,0,0,0-1.862-2.8Zm7.775-2.739a27.664,27.664,0,0,1,1.846,2.618q.95,1.507,1.867,3.036t1.594,2.794l-4.835,2.154q-.872-1.8-1.7-3.2t-1.673-2.706q-.846-1.306-1.911-2.686ZM637.166-44.41q1.392.753,3.138,1.831t3.567,2.225q1.821,1.147,3.448,2.19t2.713,1.828l-4.209,6.218q-1.154-.821-2.775-1.892T639.662-34.2q-1.765-1.119-3.482-2.163t-3.1-1.839ZM626.719-4.366q3.178-.564,6.434-1.4a61.185,61.185,0,0,0,6.487-2.055,50.8,50.8,0,0,0,6.279-2.877,63.453,63.453,0,0,0,8.933-6.093A60.627,60.627,0,0,0,662.318-24a45.916,45.916,0,0,0,5.548-7.855l4.34,7.664a59.6,59.6,0,0,1-9.7,11.083A73.825,73.825,0,0,1,649.769-3.9a59.513,59.513,0,0,1-6.291,3.024q-3.426,1.42-6.73,2.457a47.478,47.478,0,0,1-5.8,1.482Zm1.758-27.168q1.424.74,3.2,1.8t3.585,2.181q1.805,1.122,3.416,2.147t2.7,1.809l-4.14,6.332q-1.21-.853-2.815-1.913t-3.376-2.2q-1.771-1.144-3.495-2.169t-3.16-1.765Zm85.377-11.008q-.546,1.274-1.155,2.824t-1.249,3.463q-.527,1.561-1.317,4.018t-1.745,5.37q-.955,2.913-1.986,5.977t-2,5.946q-.974,2.882-1.817,5.229t-1.463,3.8l-8.343.276q.765-1.818,1.73-4.419t2.033-5.665q1.068-3.064,2.115-6.266t1.986-6.21q.94-3.008,1.707-5.53t1.207-4.141q.583-2.157.869-3.619t.473-2.88Zm10.106,18.21q1.511,2.3,3.256,5.329t3.468,6.327q1.723,3.293,3.2,6.359T736.32-.869l-7.614,3.4q-.953-2.559-2.341-5.834t-2.989-6.68q-1.6-3.4-3.259-6.41a42.457,42.457,0,0,0-3.181-5.024ZM692.24-8.14q1.955-.082,4.678-.292t5.893-.51q3.17-.3,6.475-.635t6.488-.708q3.183-.373,5.931-.717t4.692-.614l1.683,7.243q-2.07.269-4.981.592t-6.239.7l-6.777.758q-3.45.385-6.714.736t-6.031.617q-2.766.266-4.677.479-1.072.1-2.509.308t-2.785.376l-1.32-8.26q1.437.012,3.147,0T692.24-8.14Zm93.825-28.844H799.37v5.377H784.626Zm-.771-10.961,5.841,1.029q-.777,4.959-2,9.745a61.463,61.463,0,0,1-2.992,8.943,32.072,32.072,0,0,1-4.236,7.291,13.244,13.244,0,0,0-.835-1.791q-.59-1.093-1.268-2.209a11.911,11.911,0,0,0-1.256-1.756,29.792,29.792,0,0,0,4.372-9.464A80.718,80.718,0,0,0,785.293-47.945Zm2.017,15.621q.589,5.238,1.547,10.154A64.229,64.229,0,0,0,791.323-13a35.584,35.584,0,0,0,3.7,7.6A20.311,20.311,0,0,0,800.172.08a11.518,11.518,0,0,0-1.451,1.4q-.8.892-1.529,1.843a15.648,15.648,0,0,0-1.209,1.793,24.923,24.923,0,0,1-5.474-6.443,41.1,41.1,0,0,1-3.812-8.55,79.987,79.987,0,0,1-2.538-10.273q-1-5.518-1.648-11.554ZM791.766-35l5.621.3a122.065,122.065,0,0,1-2.209,16.886,48.38,48.38,0,0,1-4.735,13.295,31.314,31.314,0,0,1-8.531,9.9,10.146,10.146,0,0,0-.955-1.523q-.665-.914-1.4-1.821A12.638,12.638,0,0,0,778.25.613a24.5,24.5,0,0,0,7.686-8.572,42,42,0,0,0,4.082-11.925A108.537,108.537,0,0,0,791.766-35ZM767.341-47.933h6.136v7.86h-6.136Zm-7.465,5.217h21.68v5.08h-21.68Zm5.633,3.322,5.929,1.318q-1.028,2.658-2.086,5.347t-2,4.531l-4.754-1.249q.582-1.4,1.133-3.137t1.017-3.541Q765.21-37.927,765.509-39.394Zm-5.877,7.785q3.547-.257,8.338-.627t9.8-.8l.175,4.855q-4.574.527-9.075.975t-8.175.862Zm12.844-4.031,4.7-1.676a32.043,32.043,0,0,1,2.757,5.162A28.11,28.11,0,0,1,781.6-27.2l-5,1.909a24.929,24.929,0,0,0-1.528-5.066A36.442,36.442,0,0,0,772.476-35.64Zm-7.847,18.753h12.64v4.32h-12.64Zm.176,7.318h12.7v4.32H764.8Zm-2.5-15.122h15.038V-19.8h-9.705V4.968h-5.333Zm11.891,0h5.288V-.7a10.67,10.67,0,0,1-.364,3.032,3.166,3.166,0,0,1-1.513,1.871,6.953,6.953,0,0,1-2.656.788,33.96,33.96,0,0,1-3.6.167,15.548,15.548,0,0,0-.518-2.66,15.189,15.189,0,0,0-.951-2.627q1.177.056,2.22.056t1.406-.013a.616.616,0,0,0,.689-.689Zm-19.46-23.274,6.08,2.236a52.916,52.916,0,0,1-3.377,4.975,59.6,59.6,0,0,1-4.054,4.794,43.538,43.538,0,0,1-4.251,3.98,16.749,16.749,0,0,0-.949-1.671q-.616-.974-1.237-1.947a12.327,12.327,0,0,0-1.156-1.57,33.3,33.3,0,0,0,3.413-3.246,47.648,47.648,0,0,0,3.17-3.826A26.219,26.219,0,0,0,754.737-47.964Zm.895,11.906,5.9,2.092a73.206,73.206,0,0,1-3.586,6.824q-2.062,3.489-4.338,6.618a49.507,49.507,0,0,1-4.563,5.472,19.623,19.623,0,0,0-.939-1.869q-.65-1.171-1.366-2.365a18.434,18.434,0,0,0-1.293-1.923,47.635,47.635,0,0,0,5.617-6.763A46.474,46.474,0,0,0,755.631-36.058ZM751.872-23.73l5.847-5.86.012.069V5.056h-5.86Zm75.626.7h33v5.9h-33Zm-7.14,21.337h24.068V4.134H820.357Zm-.672-7.851q2.8-.25,6.342-.6t7.469-.764q3.928-.416,7.838-.848l.175,5.816q-3.683.432-7.439.886t-7.252.852q-3.5.4-6.411.749Zm4.426-24.122,6.432,1.721v24.5h-6.432Zm26.979-2.66,5,4.818a82.883,82.883,0,0,1-8.449,2.022q-4.631.874-9.478,1.491T828.735-27a13.3,13.3,0,0,0-.681-2.6A19.709,19.709,0,0,0,827-32.123q3.227-.3,6.581-.737t6.534-.99q3.179-.548,6.011-1.175T851.09-36.328Zm-10.9,5.221h6.664a98.2,98.2,0,0,0,.589,10.763,69.066,69.066,0,0,0,1.577,9.077,25.018,25.018,0,0,0,2.308,6.241q1.307,2.269,2.782,2.269.782,0,1.17-1.754a32.481,32.481,0,0,0,.513-5.405,13.335,13.335,0,0,0,2.543,1.825,16.459,16.459,0,0,0,2.732,1.272A24.609,24.609,0,0,1,859.79-.327a5.812,5.812,0,0,1-2.375,3.09,7.572,7.572,0,0,1-3.755.837A7.309,7.309,0,0,1,848.8,1.8a15.106,15.106,0,0,1-3.7-5.05,36.974,36.974,0,0,1-2.6-7.615,79.354,79.354,0,0,1-1.592-9.529Q840.349-25.556,840.192-31.107ZM833.125-47.92h7.049v8.478h-7.049Zm-16.905,5.3h44.588v6.037H816.219Zm-3.311,0h6.476v15.894q0,3.454-.213,7.6t-.837,8.48a60.107,60.107,0,0,1-1.822,8.408,32.951,32.951,0,0,1-3.122,7.364,12.647,12.647,0,0,0-1.583-1.313q-1.03-.747-2.1-1.423a11.976,11.976,0,0,0-1.865-1,27.581,27.581,0,0,0,2.8-6.587,50.711,50.711,0,0,0,1.5-7.362q.486-3.777.627-7.428t.141-6.741Zm68.872,11.475h14.213v6.62H881.781Zm-4.07-16.127h7.016V-1.513L877.711.126ZM870.548-3.146q3.385-.557,7.69-1.381t9.031-1.817Q892-7.336,896.626-8.3l.654,6.615q-4.274.964-8.654,1.963t-8.513,1.9q-4.133.9-7.643,1.666Zm47.4-32.433,4.7,5.905q-2.872,1.509-6.095,2.953t-6.535,2.746q-3.312,1.3-6.408,2.442a16.946,16.946,0,0,0-.97-2.767,20.236,20.236,0,0,0-1.347-2.623q2.951-1.171,5.965-2.618t5.787-3.023Q915.828-34.139,917.953-35.579ZM899.235-47.272h7V-6.064a7.082,7.082,0,0,0,.4,3.072q.4.639,2.037.639h6.127a1.833,1.833,0,0,0,1.637-.815,7.28,7.28,0,0,0,.8-2.92q.26-2.1.429-5.952a17.633,17.633,0,0,0,3.063,1.733,20.484,20.484,0,0,0,3.282,1.212,39.062,39.062,0,0,1-1.187,7.724,7.889,7.889,0,0,1-2.585,4.258,7.755,7.755,0,0,1-4.8,1.33h-7.781a11.716,11.716,0,0,1-5.1-.907A5.111,5.111,0,0,1,899.979.13a20.913,20.913,0,0,1-.743-6.263Zm68.54-.7h6.7v9.371h-6.7Zm5.491,14.916,5.282-2.594q1.4,1.761,2.823,3.832t2.635,4.1a25.712,25.712,0,0,1,1.862,3.648l-5.7,2.939a24.807,24.807,0,0,0-1.672-3.683Q977.376-26.88,976-29.046T973.266-33.061Zm-10.814-2.091,6.256,1.6a39.708,39.708,0,0,1-3.742,7.291,33.723,33.723,0,0,1-4.739,5.912,15.893,15.893,0,0,0-1.529-1.307q-.964-.741-1.972-1.438t-1.761-1.118a22.572,22.572,0,0,0,4.371-4.922A29.856,29.856,0,0,0,962.452-35.151Zm-5.472-6.293h28.09v6.124h-28.09Zm9.926,17.293a45.684,45.684,0,0,0,4.138,10.025,34.082,34.082,0,0,0,6.41,8.22,28.777,28.777,0,0,0,8.733,5.6,15.208,15.208,0,0,0-1.551,1.583q-.842.974-1.589,2a19.622,19.622,0,0,0-1.224,1.865,31.825,31.825,0,0,1-9.312-6.616,40.348,40.348,0,0,1-6.78-9.465,63.81,63.81,0,0,1-4.69-11.838Zm7.693-.113,6.237,1.394a44.323,44.323,0,0,1-7.811,17.239A35.887,35.887,0,0,1,958.495,5.25,19.535,19.535,0,0,0,957.343,3.5q-.732-1.011-1.545-2a11.641,11.641,0,0,0-1.479-1.543,31.476,31.476,0,0,0,13.342-9.338A34.747,34.747,0,0,0,974.6-24.264ZM933.037-42.5h23.029v5.829H933.037Zm-.608,32.69H957.25v5.9H932.429Zm9.245-38.075h6.049v16.465h-6.049Zm.7,16.527h4.6v15.7h.748V5.042h-6.049V-15.665h.7Zm-3.454,10.143v3.343H950.53v-3.343Zm0-7.726v3.274H950.53v-3.274Zm-4.86-4.716H955.6v20.5H934.064Z" transform="translate(377.5 225)" fill="#333"/>
  </g>
</svg>
