<svg xmlns="http://www.w3.org/2000/svg" xmlns:xlink="http://www.w3.org/1999/xlink" width="419" height="868" viewBox="0 0 419 868">
  <defs>
    <clipPath id="clip-path">
      <rect id="長方形_3929" data-name="長方形 3929" width="1210.854" height="867.426" fill="none"/>
    </clipPath>
    <clipPath id="clip-アートボード_38">
      <rect width="419" height="868"/>
    </clipPath>
  </defs>
  <g id="アートボード_38" data-name="アートボード – 38" clip-path="url(#clip-アートボード_38)">
    <g id="グループ_10302" data-name="グループ 10302" transform="translate(-401 -0.003)">
      <g id="グループ_10052" data-name="グループ 10052" transform="translate(0 0.003)" clip-path="url(#clip-path)">
        <path id="パス_15181" data-name="パス 15181" d="M932.571,1295.944l253.118,6.065s8.471,49.662,13.3,121.406c1.547,22.977,2.889,48.124,4,71.691l-121.924.8c-11.626-41.1-22.312-72.277-22.312-72.277l-6.486,72.384-120.6-.184s-2.245-60.492-2.69-87.53c-1.2-73.023,3.586-112.352,3.586-112.352" transform="translate(-452.307 -631.106)" fill="#fff" fill-rule="evenodd"/>
        <path id="パス_15182" data-name="パス 15182" d="M952.531,474.609l103.4-1.04,13.491,5.915s23.309,9.1,49.4,17.507a82.664,82.664,0,0,1,35.686,23.5s8.106,10.489,17.33,44c15.206,55.244,18.255,90.4,18.255,90.4l-13.057,5.84-53.681,122.728,6.541,115.344s-7.383,7.528-27.742,11.722c-27.9,5.748-73.851,7.674-111.222,6.725-39.025-.991-76.56-8.106-98.265-15.27-14.245-4.7-20.291-10.627-20.291-10.627s1.408-25.69,4.238-56.363,7.086-66.33,7.086-66.33l-63.742-114.86-9.68-8.434s16.177-91.382,38.814-124.407c14.15-20.641,31.974-25.726,49.786-30.635,19.111-5.268,37.745-9.576,37.745-9.576Z" transform="translate(-394.589 -230.622)" fill="#63a2cb" fill-rule="evenodd"/>
        <path id="パス_15183" data-name="パス 15183" d="M1059.211,83.07c5.838-4.764,13.014-6.337,21.344-8.563,11.816-3.162,18.551-12.151,31.154-12.371,24.074-.421,54.925,23.874,54.925,23.874a66.267,66.267,0,0,1,17.818,38.576c1.96,20.652-6.229,43.592-6.229,43.592l-128.7,4.672a97.219,97.219,0,0,1-9.1-42.134c.287-16.381,6.566-37.673,18.786-47.645" transform="translate(-506.664 -30.258)" fill="#b17458" fill-rule="evenodd"/>
        <path id="パス_15184" data-name="パス 15184" d="M1105.981,163.259s2.27,1.608,3.4,6.243c2.054,8.424,4.693,22.844,13.953,27.449,7.049,3.5,21.916,2.725,21.916,2.725s10.319,9.246,21.469,14.284c7.144,3.228,16.117.917,18.055,5.863,2.674,6.829,2.729,15.624-.333,20.809-4.314,7.3-12.952,9.771-12.952,9.771a179.742,179.742,0,0,1-6.684,21.5,65.149,65.149,0,0,1-8.042,14.509s-1.094,18.319,2.385,28.07,11.536,10.933,11.536,10.933a48.3,48.3,0,0,1-11.451,18.481c-9.5,9.333-25.173,16.818-38.423,16.81-15.154-.008-31.832-8.535-41.417-18.769-6.207-6.625-8.568-16.575-8.568-16.575s8.708-3.3,12.252-12.209S1085,289.724,1085,289.724a83.661,83.661,0,0,1-10.093-14.667,174.9,174.9,0,0,1-8.932-20.365s-16.966-3.645-16.966-20c0-4.169.154-11.455,11.251-12.5s15.632-8.784,21.787-18.215c11.072-16.966,2.875-30.007,9.579-36.009a18.639,18.639,0,0,1,14.35-4.707" transform="translate(-510.854 -79.453)" fill="#ffddc0" fill-rule="evenodd"/>
        <path id="パス_15185" data-name="パス 15185" d="M822.588,821.368l19.562,7.127,15.929.56,2.267-3.171,4.692-.531s-.231-7.813,3.652-7.926,12.89,7.429,12.89,7.429,2.75-8.421,14.1,2.427,30.3,41,30.3,41,87.91,11.024,123.458,15.884c10.808,1.479,29.519-10.97,40.88-20.266,15.172-12.417,24.9-11.4,24.9-11.4l.406-21.337a103.944,103.944,0,0,0,29.328,2.6c16.025-.928,35.144-5.691,35.144-5.691s3.159,43.35,1.157,76.271c-1.241,20.41-3.018,34.3-13.135,38.964-24.877,11.469-98.089,10.167-154.349,4.457-44.81-4.55-77.307-12.849-77.307-12.849s-51.5,3.175-83.514-2.267c-27.482-4.673-29.682-7.669-33.549-15.9-10.43-22.181,3.184-95.385,3.184-95.385" transform="translate(-397.122 -398.074)" fill="#ffddc0" fill-rule="evenodd"/>
        <path id="パス_15186" data-name="パス 15186" d="M1089.843,447.273a2.072,2.072,0,0,1-.994-3.89c6.78-3.7,10.466-7.489,11.6-11.936,1.608-6.3,1.221-17.085.979-21.43a2.071,2.071,0,0,1,4.136-.23c.313,5.634.586,16.074-1.1,22.685-1.441,5.64-5.771,10.262-13.631,14.549a2.069,2.069,0,0,1-.991.252" transform="translate(-529.727 -198.609)"/>
        <path id="パス_15187" data-name="パス 15187" d="M1270.569,444.991a2.072,2.072,0,0,1-1.02-.269c-7.358-4.165-11.434-8.647-12.827-14.106-2.321-9.085-1.394-26.721-1.353-27.467a2.071,2.071,0,1,1,4.136.225c-.01.177-.934,17.748,1.23,26.218,1.1,4.291,4.545,7.953,10.856,11.526a2.072,2.072,0,0,1-1.023,3.874" transform="translate(-611.24 -195.375)"/>
        <path id="パス_15188" data-name="パス 15188" d="M1135.068,387.667c-.847,0-12.446-.2-29.3-10.8a50.262,50.262,0,0,1-18.941-20.8c-4.392-8.23-7.6-19.186-10.408-29.8a2.071,2.071,0,1,1,4-1.059c2.746,10.371,5.865,21.051,10.058,28.907a45.919,45.919,0,0,0,17.492,19.245c15.993,10.056,26.972,10.165,27.1,10.165h0a2.071,2.071,0,0,1,.024,4.142Z" transform="translate(-524.166 -157.621)"/>
        <path id="パス_15189" data-name="パス 15189" d="M1189.542,382.5a2.071,2.071,0,0,1-.08-4.141c.156-.008,9.523-.606,24.282-12.115a54.109,54.109,0,0,0,17-21.631c3.381-8.244,5.407-19.182,7.092-29.775a2.071,2.071,0,0,1,4.09.651c-1.723,10.84-3.808,22.061-7.35,30.7a58.309,58.309,0,0,1-18.289,23.326c-16.017,12.489-26.25,12.974-26.677,12.989h-.072" transform="translate(-578.281 -152.472)"/>
        <path id="パス_15190" data-name="パス 15190" d="M1063.552,310.5c-.056,0-.112,0-.168-.007-5.419-.436-14.787-5.205-18.38-16.558-2.021-6.385-1-12.789,2.667-16.714,3.11-3.327,7.666-4.468,12.822-3.21a2.071,2.071,0,0,1-.98,4.025c-3.695-.9-6.741-.2-8.815,2.014-2.647,2.832-3.314,7.673-1.743,12.635,2.955,9.338,10.622,13.345,14.761,13.677a2.072,2.072,0,0,1-.163,4.136" transform="translate(-508.403 -133.196)"/>
        <path id="パス_15191" data-name="パス 15191" d="M1067.622,307.949a2.069,2.069,0,0,1-1.677-.854c-.581-.8-2.272-3.061-3.112-3.923a2.071,2.071,0,1,1,2.964-2.893,53.768,53.768,0,0,1,3.5,4.381,2.071,2.071,0,0,1-1.674,3.289" transform="translate(-517.296 -145.928)"/>
        <path id="パス_15192" data-name="パス 15192" d="M1286.553,299.754a2.071,2.071,0,0,1-.372-4.109c4.085-.748,11.308-5.509,13.309-15.1,1.061-5.095-.091-9.845-3.01-12.395-2.285-2-5.387-2.381-8.97-1.115a2.071,2.071,0,1,1-1.382-3.9c5.01-1.772,9.651-1.094,13.078,1.9,4.044,3.534,5.706,9.8,4.338,16.361-2.432,11.655-11.269,17.344-16.616,18.324a2.08,2.08,0,0,1-.375.034" transform="translate(-625.523 -127.673)"/>
        <path id="パス_15193" data-name="パス 15193" d="M1292.9,296.688a2.07,2.07,0,0,1-1.788-3.112,53.105,53.105,0,0,1,3.041-4.714,2.072,2.072,0,0,1,3.24,2.583c-.751.941-2.2,3.361-2.7,4.214a2.068,2.068,0,0,1-1.791,1.03" transform="translate(-628.616 -140.293)"/>
        <path id="パス_15194" data-name="パス 15194" d="M1174.77,307.856a2.066,2.066,0,0,1-1.493-.636c-3.024-3.147-4.347-5.558-4.29-7.818.062-2.459,1.73-4.029,3.2-5.414,1.4-1.318,2.724-2.562,3.11-4.614.892-4.729-2.545-14.612-3.946-18.021a2.072,2.072,0,0,1,3.832-1.575c.563,1.37,5.466,13.578,4.186,20.365-.638,3.376-2.778,5.391-4.343,6.863-1.167,1.1-1.883,1.806-1.9,2.5-.014.574.374,1.968,3.137,4.842a2.071,2.071,0,0,1-1.494,3.506" transform="translate(-569.277 -130.754)"/>
        <path id="パス_15195" data-name="パス 15195" d="M1168.31,373.634c-6.682,0-13.1-1.789-17.071-5.012a2.071,2.071,0,0,1,2.611-3.216c6.86,5.575,23.752,5.747,31.626-1.712a2.071,2.071,0,1,1,2.848,3.007c-5.042,4.778-12.683,6.932-20.015,6.932" transform="translate(-560.263 -176.838)"/>
        <path id="パス_15196" data-name="パス 15196" d="M1111.274,236.585a2.069,2.069,0,0,1-1.329-3.658c.309-.257,7.674-6.227,18.433-2.181a2.071,2.071,0,1,1-1.458,3.877c-8.438-3.172-14.1,1.3-14.337,1.5a2.071,2.071,0,0,1-1.31.464" transform="translate(-540.163 -111.688)"/>
        <path id="パス_15197" data-name="パス 15197" d="M1208.863,230.47a2.072,2.072,0,0,1-.968-3.9c10.17-5.359,18.222-.357,18.561-.143a2.072,2.072,0,0,1-2.222,3.5c-.293-.182-6.453-3.883-14.407.31a2.072,2.072,0,0,1-.964.24" transform="translate(-587.688 -109.133)"/>
        <path id="パス_15198" data-name="パス 15198" d="M1117.852,407.388s19.583,17.22,37.225,17.659c13.377.332,32.262-15.977,32.262-15.977s-19.412,24.321-36.944,27.339c-15.214,2.622-31.513-12.86-31.513-12.86Z" transform="translate(-544.377 -198.393)" fill-rule="evenodd"/>
        <path id="パス_15199" data-name="パス 15199" d="M1040.234,115.142a2.072,2.072,0,0,1-.66-4.036c4.575-1.537,7.655-5.867,10.916-10.451,5.135-7.22,10.955-15.4,24.1-15.491h.014a2.071,2.071,0,0,1,.014,4.143c-11.023.072-15.747,6.715-20.75,13.749-3.5,4.922-7.12,10.012-12.973,11.978a2.054,2.054,0,0,1-.659.108" transform="translate(-505.569 -41.475)"/>
        <path id="パス_15200" data-name="パス 15200" d="M1047.066,216.431a2.072,2.072,0,0,1-1.954-1.386c-11.327-32.269-11.606-54.871-.829-67.18a2.071,2.071,0,1,1,3.116,2.728c-9.72,11.1-9.173,32.326,1.623,63.08a2.074,2.074,0,0,1-1.955,2.758" transform="translate(-504.712 -71.665)"/>
        <path id="パス_15201" data-name="パス 15201" d="M1201.516,77.764c-5.212,0-9.6-2.834-14.208-5.8-4.18-2.7-8.918-5.754-15.049-7.241-12.555-3.047-27.854-.786-36.375,5.373a2.072,2.072,0,1,1-2.427-3.358c9.572-6.916,25.925-9.4,39.78-6.041,6.811,1.652,11.861,4.91,16.318,7.786,5.214,3.365,9.335,6.021,14.387,4.859a2.071,2.071,0,0,1,.932,4.036,14.866,14.866,0,0,1-3.358.39" transform="translate(-551.558 -28.836)"/>
        <path id="パス_15202" data-name="パス 15202" d="M1295.886,191.815a2.072,2.072,0,0,1-1.94-2.8c12.322-33.049,4.22-69.429-11.257-79.878a2.071,2.071,0,0,1,2.317-3.434c16.786,11.334,26.179,48.929,12.82,84.758a2.072,2.072,0,0,1-1.94,1.349" transform="translate(-624.206 -51.307)"/>
        <path id="パス_15203" data-name="パス 15203" d="M1085.692,262.049a2.071,2.071,0,0,1-1.028-3.871,18.914,18.914,0,0,0,7.7-8.083,2.072,2.072,0,0,1,3.833,1.573,22.749,22.749,0,0,1-9.48,10.109,2.069,2.069,0,0,1-1.026.272" transform="translate(-527.705 -121.173)"/>
        <path id="パス_15204" data-name="パス 15204" d="M1093.4,206.333a2.071,2.071,0,0,1-.237-4.129c12.552-1.469,15.06-15.129,14.966-20.269l-.019-.97c-.132-6.3-.283-13.443,7.65-17.216a2.072,2.072,0,0,1,1.78,3.741c-5.249,2.5-5.429,6.713-5.288,13.387l.02.983c.111,6.183-3.016,22.631-18.628,24.458a2.152,2.152,0,0,1-.243.014" transform="translate(-531.461 -79.647)"/>
        <path id="パス_15205" data-name="パス 15205" d="M1179.005,192.5l-.089,0c-9.026-.383-18.154-2.278-23.785-13.458-1.55-3.079-2.46-7.243-3.423-11.653-2.54-11.633-4.782-19.178-12.647-18.178a2.071,2.071,0,1,1-.526-4.109c12.194-1.57,14.985,11.171,17.22,21.4.906,4.147,1.761,8.064,3.076,10.674,4.425,8.783,11.034,10.791,20.26,11.182a2.071,2.071,0,0,1-.086,4.141" transform="translate(-553.568 -70.597)"/>
        <path id="パス_15206" data-name="パス 15206" d="M1249.015,231.455c-13.492,0-26.755-10.263-30.844-24.26a2.072,2.072,0,0,1,3.977-1.162c3.782,12.946,16.4,22.257,28.758,21.2a2.071,2.071,0,0,1,.352,4.128c-.746.064-1.495.1-2.243.1" transform="translate(-593.19 -99.611)"/>
        <path id="パス_15207" data-name="パス 15207" d="M1115.157,117.066a2.067,2.067,0,0,1-2.066-1.963c-.014-.292-.306-7.251,4.455-15.71a2.072,2.072,0,0,1,3.611,2.033c-4.14,7.35-3.931,13.415-3.928,13.475a2.074,2.074,0,0,1-1.973,2.162l-.1,0" transform="translate(-542.054 -47.891)"/>
        <path id="パス_15208" data-name="パス 15208" d="M1123.406,280.84c-.172-3.4,1.858-6.26,4.534-6.4s4.983,2.508,5.155,5.905-1.858,6.262-4.534,6.4-4.983-2.509-5.156-5.906" transform="translate(-547.076 -133.649)" fill-rule="evenodd"/>
        <path id="パス_15209" data-name="パス 15209" d="M1221.832,276.137c-.173-3.4,1.856-6.261,4.531-6.4s4.984,2.508,5.157,5.905-1.859,6.262-4.535,6.4-4.983-2.509-5.154-5.906" transform="translate(-595.008 -131.359)" fill-rule="evenodd"/>
        <path id="パス_15210" data-name="パス 15210" d="M896.558,940.005c-37.449,0-64.91-4.073-74.689-11.667-5.479-4.256-12.133-16.47-6.7-73.177,1.1-11.474,4.2-30.783,4.231-30.975a2.071,2.071,0,1,1,4.089.657c-.031.193-3.109,19.372-4.2,30.714-3.88,40.474-2.159,63.861,5.113,69.51,10.882,8.45,54.061,14.332,126,8.428,97.755-8.022,158.6-41.255,159.2-41.59a2.071,2.071,0,0,1,2.01,3.622c-.609.34-62.234,34-160.871,42.1-19.536,1.6-37.817,2.382-54.186,2.382" transform="translate(-395.992 -400.518)"/>
        <path id="パス_15211" data-name="パス 15211" d="M849.765,662.175c-14.877,0-34.387-7.88-40.591-14.947-1.842-2.1-2.568-4.131-2.158-6.044l.121-.56c6.286-29.344,17.986-83.963,33.471-115.627,13.315-27.226,40.522-34.324,69.327-41.838,6.874-1.794,13.983-3.649,20.982-5.8,3.078-.947,7.97-2.987,13.148-5.146,2.075-.865,4.184-1.744,6.227-2.575a9.283,9.283,0,0,1,8.056.72,2.071,2.071,0,0,1-2.233,3.49,5.043,5.043,0,0,0-4.264-.372c-2.032.826-4.129,1.7-6.191,2.561-5.274,2.2-10.255,4.276-13.524,5.281-7.086,2.179-14.238,4.046-21.156,5.85-27.858,7.267-54.172,14.133-66.65,39.65-15.262,31.209-26.894,85.505-33.142,114.675l-.121.561c-.113.529.343,1.442,1.221,2.442,5.406,6.159,25.568,14.642,40.21,13.431a2.072,2.072,0,0,1,.337,4.13c-.995.081-2.02.12-3.069.12" transform="translate(-392.95 -228.402)"/>
        <path id="パス_15212" data-name="パス 15212" d="M1398.069,817.833h-.007a2.07,2.07,0,0,1-2.064-2.078c0-.859.31-86.362,1.608-131.556a2.071,2.071,0,1,1,4.139.118c-1.294,45.144-1.6,130.593-1.6,131.45a2.071,2.071,0,0,1-2.072,2.065" transform="translate(-679.83 -332.216)"/>
        <path id="パス_15213" data-name="パス 15213" d="M1199.283,963.549c-46.65,0-106.311-5.424-161.987-17.4a2.071,2.071,0,1,1,.871-4.049c100.733,21.661,220.47,22.006,239.766,6.458,5.767-4.646,10.768-31.068,8.942-79.619-.377-9.994-.945-20.109-1.688-30.063a2.071,2.071,0,0,1,4.13-.307c.748,10,1.319,20.17,1.7,30.215,1.679,44.633-2.339,76.437-10.483,83-9.42,7.588-40.329,11.761-81.248,11.761" transform="translate(-504.35 -407.438)"/>
        <path id="パス_15214" data-name="パス 15214" d="M1358.831,665.508c-8.055,0-15.422-.846-20.825-2.9a2.071,2.071,0,0,1,1.476-3.871c20.932,7.971,69.278-3.479,72.263-8.314-6.635-52.878-16.865-86.075-27.651-118.175-8.689-25.861-32.819-33.607-60.759-42.575-11.235-3.606-22.854-7.337-33.945-12.5-.661-.307-6.549-3.062-10.046-5.228-3.117-1.933-6.677-.027-6.827.055a2.072,2.072,0,0,1-2.02-3.617c.234-.13,5.808-3.2,11.03.041,3.29,2.038,8.973,4.7,9.61,4.993,10.856,5.054,22.349,8.743,33.464,12.31,27.8,8.925,54.063,17.354,63.417,45.2,10.871,32.352,21.182,65.813,27.862,119.2.181,1.442-.545,2.818-2.16,4.086-6.575,5.163-33.215,11.3-54.891,11.3" transform="translate(-618.2 -227.395)"/>
        <path id="パス_15215" data-name="パス 15215" d="M916,878.513a2.071,2.071,0,0,1-1.726-.924c-6.073-9.133-16.646-22.213-21.142-22.7a.694.694,0,0,0-.67.172c-3.392,3.286,3.552,13.078,7.445,17.305a2.072,2.072,0,0,1-3.046,2.809c-1.5-1.629-14.477-16.121-7.282-23.088a4.813,4.813,0,0,1,4-1.317c8.047.869,21.527,20.58,24.148,24.522A2.072,2.072,0,0,1,916,878.513" transform="translate(-432.16 -414.298)"/>
        <path id="パス_15216" data-name="パス 15216" d="M935.49,871.962a2.07,2.07,0,0,1-1.831-1.1c-7.527-14.174-26.2-35.576-33.655-36.752-.829-.13-1.064.1-1.141.174-1.276,1.235-1.276,3.338,0,6.251a2.071,2.071,0,1,1-3.795,1.661c-2.542-5.806-.905-9.127.914-10.889a5.229,5.229,0,0,1,4.67-1.29c9.647,1.524,29.089,24.631,36.667,38.9a2.07,2.07,0,0,1-1.828,3.042" transform="translate(-435.247 -404.163)"/>
        <path id="パス_15217" data-name="パス 15217" d="M957.326,866.847a2.072,2.072,0,0,1-1.891-1.224c-9.229-20.561-32.292-45.9-40.959-47.567a1.554,1.554,0,0,0-1.178.078c-1.276,1.235-1.276,3.338,0,6.253a2.071,2.071,0,1,1-3.795,1.661c-2.54-5.809-.905-9.127.914-10.889a5.167,5.167,0,0,1,4.841-1.17c10.795,2.073,34.622,29.142,43.958,49.939a2.071,2.071,0,0,1-1.889,2.919" transform="translate(-442.277 -396.333)"/>
        <path id="パス_15218" data-name="パス 15218" d="M987.122,872.741a2.07,2.07,0,0,1-1.842-1.119c-9.1-17.6-30.1-43.928-37.622-45.158-.35-.06-.583-.036-.689.068a3.118,3.118,0,0,0-.63.855,2.072,2.072,0,0,1-3.71-1.845,7.294,7.294,0,0,1,1.458-1.985,4.706,4.706,0,0,1,4.24-1.182c10.366,1.694,32.557,31.726,40.634,47.343a2.071,2.071,0,0,1-1.838,3.023" transform="translate(-458.94 -400.444)"/>
        <path id="パス_15219" data-name="パス 15219" d="M950.706,746.759a2.072,2.072,0,0,1-2.068-1.994c-.02-.531-2-53.461-1.207-80.165a2.071,2.071,0,0,1,4.141.123c-.793,26.565,1.186,79.356,1.206,79.887a2.07,2.07,0,0,1-1.991,2.147c-.027,0-.053,0-.08,0" transform="translate(-461.292 -322.673)"/>
        <path id="パス_15220" data-name="パス 15220" d="M1138.475,513.564q-.529,0-1.061-.009c-23.573-.409-44.56-14.673-52.221-35.493a2.071,2.071,0,0,1,3.887-1.43c7.077,19.228,26.529,32.4,48.406,32.782,22.063.366,40.407-12.145,49.123-33.512a2.071,2.071,0,0,1,3.835,1.565c-9.246,22.668-28.623,36.1-51.969,36.1" transform="translate(-528.41 -231.129)"/>
        <path id="パス_15221" data-name="パス 15221" d="M1161.888,693.918a13.479,13.479,0,0,1,14.7-12.116c7.247.842,11.715,6.593,11.356,14.848-.414,9.539-5.554,33.39-5.936,34.742-.209.737-6.406.547-6.336-1.213.133-3.413.781-10.811,1.249-15.986.354-3.918.571-6.279.571-6.279-10.086.735-16.481-6.463-15.607-14" transform="translate(-565.783 -331.987)" fill="#ff8e5e" fill-rule="evenodd"/>
        <path id="パス_15222" data-name="パス 15222" d="M1178.174,731.926a14.633,14.633,0,0,1-2.243-.193c-3.835-.612-4.335-2.518-4.293-3.6.137-3.464.783-10.842,1.257-16.09l.363-3.986a16.568,16.568,0,0,1-11.5-4.936,14.114,14.114,0,0,1-3.893-11.406,15.572,15.572,0,0,1,17-13.935c8.418.978,13.593,7.649,13.187,16.994-.421,9.675-5.582,33.691-6.012,35.217s-2.169,1.936-3.864,1.936m-2.359-4.444a10.694,10.694,0,0,0,2.5.283c1.134-5.016,5.235-24.8,5.6-33.172.31-7.115-3.34-11.981-9.526-12.7a11.427,11.427,0,0,0-12.406,10.3,9.983,9.983,0,0,0,2.769,8.063,13.021,13.021,0,0,0,10.631,3.628,2.07,2.07,0,0,1,2.213,2.256l-.57,6.275c-.436,4.818-1.017,11.438-1.207,15.069" transform="translate(-563.817 -330.022)"/>
        <path id="パス_15223" data-name="パス 15223" d="M1141.848,581.411a2.069,2.069,0,0,1-1.761-.979c-1.629-2.625-39.938-64.746-45.261-105.251a2.071,2.071,0,0,1,4.107-.54c5.207,39.617,44.28,102.971,44.673,103.607a2.071,2.071,0,0,1-1.758,3.163" transform="translate(-533.155 -230.267)"/>
        <path id="パス_15224" data-name="パス 15224" d="M1185.1,582.564a2.071,2.071,0,0,1-1.758-3.163c.394-.636,39.467-63.989,44.673-103.607a2.071,2.071,0,1,1,4.107.541c-5.323,40.506-43.632,102.626-45.26,105.25a2.069,2.069,0,0,1-1.762.979" transform="translate(-576.119 -230.829)"/>
        <path id="パス_15225" data-name="パス 15225" d="M1078.379,917.1a22.177,22.177,0,0,1-2.5-.136q-15.19-1.708-30.092-3.3c-57.14-6.2-111.109-12.049-169.293-25.938a2.071,2.071,0,0,1,.961-4.029c57.93,13.827,111.773,19.667,168.778,25.849q14.926,1.618,30.108,3.306c14.828,1.663,38.063-16.294,46.81-23.056,10.78-8.332,19.527-7.926,19.875-7.913a2.073,2.073,0,0,1,1.95,2.186,2.1,2.1,0,0,1-2.186,1.95c-.068,0-7.639-.261-17.1,7.055-14.643,11.318-33,24.03-47.312,24.03" transform="translate(-426.067 -429.462)"/>
        <path id="パス_15226" data-name="パス 15226" d="M1067.471,1200.255q-7.275,0-14.595-.171a414.178,414.178,0,0,1-86.519-11.214c-14.556-3.572-38.962-10.638-38.872-17.843.367-28.959,5.85-74.575,9.126-101.828.948-7.891,1.7-14.12,2.127-18.273a2.071,2.071,0,1,1,4.12.427c-.432,4.185-1.182,10.431-2.133,18.339-3.267,27.173-8.733,72.651-9.1,101.387.54,1.761,10.357,7.682,37.194,14.125a412.317,412.317,0,0,0,84.154,10.737c64.509,1.553,122.741-7.531,131.73-16.667a2.548,2.548,0,0,0,.876-1.579c-.46-11.546-6.955-104.86-7.022-105.8a2.071,2.071,0,1,1,4.133-.288c.065.942,6.566,94.316,7.028,105.924a6.232,6.232,0,0,1-2.063,4.649c-10.138,10.307-63.345,18.077-120.186,18.077" transform="translate(-451.671 -510.881)"/>
        <path id="パス_15227" data-name="パス 15227" d="M929.625,1502.6a2.072,2.072,0,0,1-2.067-1.968c-5.834-115.973-1.581-193.011-1.537-193.777a2.071,2.071,0,0,1,4.136.236c-.044.762-4.283,77.6,1.539,193.333a2.069,2.069,0,0,1-1.964,2.171c-.036,0-.071,0-.106,0" transform="translate(-450.209 -635.468)"/>
        <path id="パス_15228" data-name="パス 15228" d="M1447.384,1507.656a2.07,2.07,0,0,1-2.066-1.971c-6.736-139.151-13.96-185.422-14.033-185.873a2.072,2.072,0,0,1,4.091-.656c.073.453,7.327,46.862,14.08,186.328a2.07,2.07,0,0,1-1.969,2.168.968.968,0,0,1-.1,0" transform="translate(-697.001 -641.56)"/>
        <path id="パス_15229" data-name="パス 15229" d="M1187.718,1581.94a2.071,2.071,0,0,1-2-1.521c-21.373-77.671-31.845-101.361-36.866-107.557a2.071,2.071,0,1,1,3.218-2.608c7.667,9.459,20.331,46.156,37.643,109.065a2.071,2.071,0,0,1-2,2.622" transform="translate(-559.25 -715.618)"/>
        <path id="パス_15230" data-name="パス 15230" d="M1167.229,1614.141c-.05,0-.1,0-.151-.005a2.071,2.071,0,0,1-1.917-2.215c2.947-40.906,5.912-76.327,5.942-76.68a2.071,2.071,0,1,1,4.128.346c-.03.353-2.993,35.751-5.939,76.632a2.069,2.069,0,0,1-2.063,1.922" transform="translate(-567.413 -746.715)"/>
        <path id="パス_15231" data-name="パス 15231" d="M1155.36,1397.468a2.072,2.072,0,0,1-2.064-1.926c-.024-.34-2.413-34.21-3.339-54.6a2.071,2.071,0,1,1,4.138-.188c.925,20.336,3.31,54.155,3.334,54.495a2.072,2.072,0,0,1-1.92,2.212c-.051,0-.1.005-.149.005" transform="translate(-560.01 -651.966)"/>
      </g>
    </g>
  </g>
</svg>
